<svg xmlns="http://www.w3.org/2000/svg" viewBox="0 0 32 32" width="32" height="32">
  <defs>
    <linearGradient id="grad" x1="0%" y1="0%" x2="100%" y2="100%">
      <stop offset="0%" stop-color="#818cf8" />
      <stop offset="100%" stop-color="#c084fc" />
    </linearGradient>
    <filter id="glow" x="-20%" y="-20%" width="140%" height="140%">
      <feGaussianBlur stdDeviation="1.5" result="blur" />
      <feComposite in="SourceGraphic" in2="blur" operator="over" />
    </filter>
  </defs>
  <!-- Background circular badge with sleek border -->
  <circle cx="16" cy="16" r="14.5" fill="#0b0f19" stroke="url(#grad)" stroke-width="1.5" />
  <!-- Sphere glow in the center -->
  <circle cx="16" cy="16" r="7" fill="url(#grad)" opacity="0.15" filter="url(#glow)" />
  <!-- Elegant vector voice waves & microphone representation -->
  <g transform="translate(1, 1)">
    <path d="M15 7c-1.38 0-2.5 1.12-2.5 2.5v5c0 1.38 1.12 2.5 2.5 2.5s2.5-1.12 2.5-2.5v-5c0-1.38-1.12-2.5-2.5-2.5zm4.5 7.5c0 2.48-2.02 4.5-4.5 4.5s-4.5-2.02-4.5-4.5H8.5c0 3.2 2.37 5.82 5.5 6.27V23h2v-2.23c3.13-.45 5.5-3.07 5.5-6.27h-2z" fill="url(#grad)" />
  </g>
</svg>
